<svg width="512" height="512" viewBox="0 0 512 512" fill="none" xmlns="http://www.w3.org/2000/svg">
  <defs>
    <linearGradient id="bgB" x1="60" y1="52" x2="452" y2="460" gradientUnits="userSpaceOnUse">
      <stop offset="0" stop-color="#1e40af"/>
      <stop offset="1" stop-color="#2563eb"/>
    </linearGradient>
    <filter id="shadowB" x="92" y="152" width="328" height="240" filterUnits="userSpaceOnUse" color-interpolation-filters="sRGB">
      <feOffset dy="8"/>
      <feGaussianBlur stdDeviation="10"/>
      <feColorMatrix type="matrix" values="0 0 0 0 0.0588 0 0 0 0 0.1647 0 0 0 0 0.5215 0 0 0 0.28 0"/>
      <feBlend mode="normal" in2="SourceGraphic" result="shape"/>
    </filter>
  </defs>
  <rect x="32" y="32" width="448" height="448" rx="100" fill="url(#bgB)"/>
  <g filter="url(#shadowB)">
    <path d="M112 212C151 204 192 214 236 244V352C193 323 152 313 112 320V212Z" fill="#fff8ea"/>
    <path d="M400 212C361 204 320 214 276 244V352C319 323 360 313 400 320V212Z" fill="#fff2d8"/>
    <path d="M256 242V356" stroke="#e5dece" stroke-width="7" stroke-linecap="round"/>
    <path d="M132 250C165 246 193 253 220 271" stroke="#9fb5e8" stroke-width="8" stroke-linecap="round"/>
    <path d="M132 282C162 279 188 285 210 298" stroke="#b6c4e8" stroke-width="8" stroke-linecap="round"/>
    <path d="M132 312C158 309 182 313 202 324" stroke="#c7d2ea" stroke-width="8" stroke-linecap="round"/>
    <path d="M291 272H380" stroke="#9fb5e8" stroke-width="8" stroke-linecap="round"/>
    <path d="M291 301H366" stroke="#b6c4e8" stroke-width="8" stroke-linecap="round"/>
    <path d="M291 329H350" stroke="#c7d2ea" stroke-width="8" stroke-linecap="round"/>
  </g>
  <circle cx="374" cy="154" r="52" fill="#f59e0b"/>
  <path d="M349 153L369 173L402 139" stroke="#fff9eb" stroke-width="14" stroke-linecap="round" stroke-linejoin="round"/>
  <path d="M212 120L256 164L300 120" stroke="#bfdbfe" stroke-width="10" stroke-linecap="round" stroke-linejoin="round" opacity="0.9"/>
</svg>
